<svg xmlns="http://www.w3.org/2000/svg" width="7.951" height="9.785" viewBox="0 0 7.951 9.785">
  <g id="delete" transform="translate(-48)">
    <path id="Path_10106" data-name="Path 10106" d="M55.186,1.223H53.5V.917A.918.918,0,0,0,52.587,0H51.364a.918.918,0,0,0-.917.917v.306H48.764A.765.765,0,0,0,48,1.988v1.07a.306.306,0,0,0,.306.306h.167l.264,5.548a.916.916,0,0,0,.916.874H54.3a.916.916,0,0,0,.916-.874l.264-5.548h.167a.306.306,0,0,0,.306-.306V1.988A.765.765,0,0,0,55.186,1.223ZM51.058.917a.306.306,0,0,1,.306-.306h1.223a.306.306,0,0,1,.306.306v.306H51.058Zm-2.446,1.07a.153.153,0,0,1,.153-.153h6.422a.153.153,0,0,1,.153.153v.764H48.612ZM54.6,8.882a.305.305,0,0,1-.305.291H49.653a.305.305,0,0,1-.305-.291l-.263-5.519h5.78Z" fill="#3e3e3e"/>
    <path id="Path_10107" data-name="Path 10107" d="M240.306,212.587a.306.306,0,0,0,.306-.306v-3.975a.306.306,0,0,0-.612,0v3.975A.306.306,0,0,0,240.306,212.587Z" transform="translate(-188.331 -204.025)" fill="#3e3e3e"/>
    <path id="Path_10108" data-name="Path 10108" d="M320.306,212.587a.306.306,0,0,0,.306-.306v-3.975a.306.306,0,0,0-.612,0v3.975A.306.306,0,0,0,320.306,212.587Z" transform="translate(-266.802 -204.025)" fill="#3e3e3e"/>
    <path id="Path_10109" data-name="Path 10109" d="M160.306,212.587a.306.306,0,0,0,.306-.306v-3.975a.306.306,0,0,0-.612,0v3.975A.306.306,0,0,0,160.306,212.587Z" transform="translate(-109.859 -204.025)" fill="#3e3e3e"/>
  </g>
</svg>
