<svg xmlns="http://www.w3.org/2000/svg" width="10.289" height="10.289" viewBox="0 0 10.289 10.289">
  <g id="edit" transform="translate(0 -0.004)">
    <g id="Group_4017" data-name="Group 4017" transform="translate(0 0.739)">
      <g id="Group_4016" data-name="Group 4016">
        <path id="Path_10104" data-name="Path 10104" d="M8.451,38.546a.367.367,0,0,0-.367.367v3.674a.367.367,0,0,1-.367.367H1.1a.367.367,0,0,1-.367-.367V35.239a.367.367,0,0,1,.367-.367H5.512a.367.367,0,1,0,0-.735H1.1a1.1,1.1,0,0,0-1.1,1.1v7.349a1.1,1.1,0,0,0,1.1,1.1H7.716a1.1,1.1,0,0,0,1.1-1.1V38.914A.367.367,0,0,0,8.451,38.546Z" transform="translate(0 -34.137)" fill="#3e3e3e"/>
      </g>
    </g>
    <g id="Group_4019" data-name="Group 4019" transform="translate(2.205 0.004)">
      <g id="Group_4018" data-name="Group 4018" transform="translate(0 0)">
        <path id="Path_10105" data-name="Path 10105" d="M110.081.416a1.406,1.406,0,0,0-1.99,0l-4.84,4.84a.371.371,0,0,0-.089.144l-.735,2.2a.367.367,0,0,0,.348.484.373.373,0,0,0,.116-.019l2.2-.735a.368.368,0,0,0,.144-.089l4.84-4.84A1.407,1.407,0,0,0,110.081.416Zm-.52,1.47-4.777,4.777-1.427.477.475-1.425L108.611.937a.671.671,0,1,1,.95.949Z" transform="translate(-102.409 -0.004)" fill="#3e3e3e"/>
      </g>
    </g>
  </g>
</svg>
