<svg xmlns="http://www.w3.org/2000/svg" width="9.804" height="10.505" viewBox="0 0 9.804 10.505">
  <g id="list_2_" data-name="list (2)" transform="translate(-11.45)">
    <g id="Group_4025" data-name="Group 4025" transform="translate(15.059 4.948)">
      <g id="Group_4024" data-name="Group 4024">
        <path id="Path_10118" data-name="Path 10118" d="M135.34,161.8h-5.584a.306.306,0,1,0,0,.612h5.584a.306.306,0,0,0,0-.612Z" transform="translate(-129.45 -161.8)" fill="#3e3e3e"/>
      </g>
    </g>
    <g id="Group_4027" data-name="Group 4027" transform="translate(11.45 3.832)">
      <g id="Group_4026" data-name="Group 4026">
        <path id="Path_10119" data-name="Path 10119" d="M12.872,125.3a1.422,1.422,0,1,0,1.422,1.422A1.421,1.421,0,0,0,12.872,125.3Zm0,2.233a.81.81,0,1,1,.81-.81A.81.81,0,0,1,12.872,127.533Z" transform="translate(-11.45 -125.3)" fill="#3e3e3e"/>
      </g>
    </g>
    <g id="Group_4029" data-name="Group 4029" transform="translate(15.059 1.125)">
      <g id="Group_4028" data-name="Group 4028">
        <path id="Path_10120" data-name="Path 10120" d="M135.34,36.8h-5.584a.306.306,0,1,0,0,.612h5.584a.306.306,0,1,0,0-.612Z" transform="translate(-129.45 -36.8)" fill="#3e3e3e"/>
      </g>
    </g>
    <g id="Group_4031" data-name="Group 4031" transform="translate(11.45)">
      <g id="Group_4030" data-name="Group 4030">
        <path id="Path_10121" data-name="Path 10121" d="M12.872,0a1.422,1.422,0,1,0,1.422,1.422A1.421,1.421,0,0,0,12.872,0Zm0,2.236a.81.81,0,1,1,.81-.81A.81.81,0,0,1,12.872,2.236Z" transform="translate(-11.45)" fill="#3e3e3e"/>
      </g>
    </g>
    <g id="Group_4033" data-name="Group 4033" transform="translate(15.059 8.771)">
      <g id="Group_4032" data-name="Group 4032">
        <path id="Path_10122" data-name="Path 10122" d="M135.34,286.8h-5.584a.306.306,0,1,0,0,.612h5.584a.306.306,0,1,0,0-.612Z" transform="translate(-129.45 -286.8)" fill="#3e3e3e"/>
      </g>
    </g>
    <g id="Group_4035" data-name="Group 4035" transform="translate(11.45 7.661)">
      <g id="Group_4034" data-name="Group 4034">
        <path id="Path_10123" data-name="Path 10123" d="M12.872,250.5a1.422,1.422,0,1,0,1.422,1.422A1.421,1.421,0,0,0,12.872,250.5Zm0,2.236a.81.81,0,1,1,.81-.81A.81.81,0,0,1,12.872,252.736Z" transform="translate(-11.45 -250.5)" fill="#3e3e3e"/>
      </g>
    </g>
  </g>
</svg>
