<svg xmlns="http://www.w3.org/2000/svg" width="9.333" height="12.431" viewBox="0 0 9.333 12.431">
  <g id="click" transform="translate(-0.284)">
    <path id="Path_10116" data-name="Path 10116" d="M8.613,39.326H8.6a.959.959,0,0,0-.646.246,1.008,1.008,0,0,0-.936-.683.971.971,0,0,0-.693.3.993.993,0,0,0-.886-.567H5.415a.91.91,0,0,0-.571.19V36.4a1.033,1.033,0,0,0-1-1.055,1.032,1.032,0,0,0-1,1.055l0,4.777-.27-.328a1.364,1.364,0,0,0-.964-.506A1.342,1.342,0,0,0,.6,40.7L.36,40.9a.209.209,0,0,0-.052.258l2.287,4.4a2.358,2.358,0,0,0,2.077,1.3H7.249v0a2.454,2.454,0,0,0,2.368-2.527c0-.623,0-1.087,0-1.464,0-1.007,0-1.379,0-2.488a1.027,1.027,0,0,0-1-1.048Zm.582,3.534c0,.376,0,.843,0,1.466a2.042,2.042,0,0,1-1.956,2.11H4.672a1.942,1.942,0,0,1-1.706-1.08L.757,41.111l.109-.091.008-.007a.928.928,0,0,1,.7-.25.949.949,0,0,1,.669.355l.64.779a.209.209,0,0,0,.371-.133l0-5.361a.616.616,0,0,1,.586-.637.616.616,0,0,1,.586.637v3.232c0,.011,0,.023,0,.034s0,.01,0,.015v1.382a.209.209,0,1,0,.418,0V39.642a.586.586,0,0,1,.571-.6h.019a.61.61,0,0,1,.587.63v1.265a.209.209,0,0,0,.418,0v-.992a.578.578,0,1,1,1.15,0v.936a.209.209,0,1,0,.418,0v-.507a.608.608,0,0,1,.588-.626h.017a.607.607,0,0,1,.581.63c0,1.109,0,1.48,0,2.486Zm0,0" transform="translate(0 -34.423)" fill="#3e3e3e"/>
    <path id="Path_10117" data-name="Path 10117" d="M64.819,2.069a.209.209,0,0,0,.209-.209,1.449,1.449,0,0,1,2.9,0,.209.209,0,0,0,.418,0,1.867,1.867,0,0,0-3.735,0A.209.209,0,0,0,64.819,2.069Zm0,0" transform="translate(-62.644)" fill="#3e3e3e"/>
  </g>
</svg>
