<svg id="print" xmlns="http://www.w3.org/2000/svg" width="9.145" height="9.144" viewBox="0 0 9.145 9.144">
  <path id="Path_10110" data-name="Path 10110" d="M7.8,2.3h-.25V1.34A1.341,1.341,0,0,0,6.215,0H2.929A1.341,1.341,0,0,0,1.59,1.34V2.3H1.34A1.341,1.341,0,0,0,0,3.643V5.787a1.341,1.341,0,0,0,1.34,1.34h.25V8.341a.8.8,0,0,0,.8.8H6.751a.8.8,0,0,0,.8-.8V7.126H7.8a1.341,1.341,0,0,0,1.34-1.34V3.643A1.341,1.341,0,0,0,7.8,2.3ZM2.125,1.34a.8.8,0,0,1,.8-.8H6.215a.8.8,0,0,1,.8.8V2.3H2.125Zm4.894,7a.268.268,0,0,1-.268.268H2.393a.268.268,0,0,1-.268-.268V5.7H7.019Zm1.59-2.554a.8.8,0,0,1-.8.8h-.25V5.7h.161a.268.268,0,0,0,0-.536H1.429a.268.268,0,0,0,0,.536H1.59V6.59H1.34a.8.8,0,0,1-.8-.8V3.643a.8.8,0,0,1,.8-.8H7.8a.8.8,0,0,1,.8.8Z" fill="#3e3e3e"/>
  <path id="Path_10111" data-name="Path 10111" d="M202.7,353h-1.429a.268.268,0,0,0,0,.536H202.7a.268.268,0,1,0,0-.536Z" transform="translate(-197.41 -346.695)" fill="#3e3e3e"/>
  <path id="Path_10112" data-name="Path 10112" d="M202.7,417h-1.429a.268.268,0,0,0,0,.536H202.7a.268.268,0,1,0,0-.536Z" transform="translate(-197.41 -409.552)" fill="#3e3e3e"/>
  <path id="Path_10113" data-name="Path 10113" d="M66.125,193h-.857a.268.268,0,1,0,0,.536h.857a.268.268,0,1,0,0-.536Z" transform="translate(-63.839 -189.553)" fill="#3e3e3e"/>
</svg>
