<?xml version="1.0"?>
<svg xmlns="http://www.w3.org/2000/svg" xmlns:xlink="http://www.w3.org/1999/xlink" xmlns:svgjs="http://svgjs.com/svgjs" version="1.1" width="512" height="512" x="0" y="0" viewBox="0 0 74 74" style="enable-background:new 0 0 512 512" xml:space="preserve" class=""><g><path xmlns="http://www.w3.org/2000/svg" d="m62.905 57.358h-51.805a1 1 0 0 1 -.792-1.609c7.646-9.94 11.055-19.27 11.055-30.252v-1.097a15.642 15.642 0 0 1 31.284 0v1.1c0 10.982 3.409 20.312 11.055 30.252a1 1 0 0 1 -.792 1.609zm-49.811-2h47.812c-7.086-9.72-10.264-19.006-10.264-29.858v-1.1a13.642 13.642 0 0 0 -27.284 0v1.1c0 10.852-3.178 20.138-10.264 29.858z" fill="#46eb7d" data-original="#000000" style="" class=""/><path xmlns="http://www.w3.org/2000/svg" d="m41.077 11.343a1 1 0 0 1 -1-1v-3.266a3.077 3.077 0 1 0 -6.154 0v3.266a1 1 0 1 1 -2 0v-3.266a5.077 5.077 0 1 1 10.154 0v3.266a1 1 0 0 1 -1 1z" fill="#46eb7d" data-original="#000000" style="" class=""/><path xmlns="http://www.w3.org/2000/svg" d="m64.289 63.6h-54.578a4.121 4.121 0 1 1 0-8.242h54.578a4.121 4.121 0 0 1 0 8.242zm-54.578-6.242a2.121 2.121 0 1 0 0 4.242h54.578a2.121 2.121 0 0 0 0-4.242z" fill="#46eb7d" data-original="#000000" style="" class=""/><path xmlns="http://www.w3.org/2000/svg" d="m37 72a9.41 9.41 0 0 1 -9.4-9.4 1 1 0 0 1 2 0 7.4 7.4 0 0 0 14.8 0 1 1 0 0 1 2 0 9.41 9.41 0 0 1 -9.4 9.4z" fill="#46eb7d" data-original="#000000" style="" class=""/></g></svg>
