<svg xmlns="http://www.w3.org/2000/svg" width="16.361" height="15.338" viewBox="0 0 16.361 15.338">
  <g id="browser_2_" data-name="browser (2)" transform="translate(0 -16.017)">
    <path id="Path_12" data-name="Path 12" d="M52.335,201.678H41.47a1.472,1.472,0,0,1-1.47-1.47v-7.734a.511.511,0,0,1,1.023,0v7.734a.448.448,0,0,0,.447.447H52.335a.448.448,0,0,0,.447-.447v-7.734a.511.511,0,0,1,1.023,0v7.734A1.472,1.472,0,0,1,52.335,201.678Z" transform="translate(-38.722 -170.324)" fill="#131027"/>
    <path id="Path_13" data-name="Path 13" d="M15.85,23.94a.51.51,0,0,1-.362-.15L9.13,17.432a1.344,1.344,0,0,0-1.9,0L.873,23.79a.511.511,0,0,1-.723-.723l6.359-6.359a2.367,2.367,0,0,1,3.344,0l6.359,6.359a.511.511,0,0,1-.362.873Z" fill="#131027"/>
    <path id="Path_14" data-name="Path 14" d="M180.6,294.63h-4.09a.511.511,0,0,1-.511-.511v-4.538a1.6,1.6,0,0,1,1.6-1.6h1.917a1.6,1.6,0,0,1,1.6,1.6v4.538A.511.511,0,0,1,180.6,294.63Zm-3.579-1.023h3.068v-4.026a.576.576,0,0,0-.575-.575H177.6a.576.576,0,0,0-.575.575Z" transform="translate(-170.376 -263.275)" fill="#131027"/>
  </g>
</svg>
