<?xml version="1.0" standalone="no"?>
<!DOCTYPE svg PUBLIC "-//W3C//DTD SVG 20010904//EN"
 "http://www.w3.org/TR/2001/REC-SVG-20010904/DTD/svg10.dtd">
<svg version="1.0" xmlns="http://www.w3.org/2000/svg"
 width="505.000000pt" height="494.000000pt" viewBox="0 0 505.000000 494.000000"
 preserveAspectRatio="xMidYMid meet">

<g transform="translate(0.000000,494.000000) scale(0.100000,-0.100000)"
fill="#000000" stroke="none">
<path d="M2778 4517 l422 -422 -895 -895 c-492 -492 -895 -898 -895 -902 0
-16 982 -988 998 -988 9 0 417 401 907 890 l890 890 422 -422 423 -423 0 1323
c0 1201 -1 1325 -16 1347 l-16 25 -1332 0 -1331 0 423 -423z"/>
<path d="M409 3741 c-122 -13 -271 -118 -340 -238 -68 -118 -63 -11 -66 -1577
-4 -1581 -6 -1532 61 -1664 40 -78 126 -165 201 -204 114 -59 72 -58 1609 -58
1261 0 1414 2 1488 16 165 33 288 136 351 294 l26 65 6 813 c4 446 3 812 -1
812 -3 0 -123 -116 -265 -257 l-258 -257 -3 -341 -3 -340 -29 -63 c-31 -68
-98 -137 -170 -175 l-41 -22 -1065 -3 c-744 -2 -1080 1 -1117 8 -47 10 -123
57 -168 105 -28 29 -65 95 -76 135 -16 59 -25 1767 -10 2024 l10 179 35 51
c51 73 95 112 162 143 l59 28 448 3 448 3 257 257 256 257 -54 7 c-69 8 -1675
7 -1751 -1z"/>
</g>
</svg>
