<?xml version="1.0" standalone="no"?>
<!DOCTYPE svg PUBLIC "-//W3C//DTD SVG 20010904//EN"
 "http://www.w3.org/TR/2001/REC-SVG-20010904/DTD/svg10.dtd">
<svg version="1.0" xmlns="http://www.w3.org/2000/svg"
 width="500.000000pt" height="500.000000pt" viewBox="0 0 500.000000 500.000000"
 preserveAspectRatio="xMidYMid meet">

<g transform="translate(0.000000,500.000000) scale(0.100000,-0.100000)"
fill="#000000" stroke="none">
<path d="M2016 4548 c-32 -33 -32 -34 -65 -273 -18 -132 -36 -260 -40 -285
l-6 -44 -100 -51 c-55 -27 -135 -74 -178 -103 l-79 -53 -101 40 c-56 22 -140
55 -187 75 -176 72 -242 96 -266 96 -54 0 -77 -25 -161 -172 -44 -78 -111
-195 -148 -258 -188 -323 -209 -363 -208 -397 1 -18 7 -41 14 -49 13 -15 141
-119 355 -286 l99 -77 0 -211 -1 -211 -91 -72 c-51 -40 -148 -116 -216 -170
-150 -118 -159 -127 -160 -170 -1 -34 20 -73 208 -397 37 -63 104 -180 148
-258 84 -147 107 -172 161 -172 24 0 90 24 266 96 47 20 131 53 187 75 l102
40 78 -53 c43 -29 123 -75 178 -103 l100 -51 6 -44 c4 -25 22 -153 40 -285 33
-239 33 -240 65 -272 l32 -33 452 0 452 0 32 33 c32 32 32 33 65 272 18 132
36 260 39 284 l7 44 100 51 c55 28 135 75 179 104 l78 53 265 -105 c145 -58
276 -106 289 -106 54 0 77 25 161 172 44 78 111 195 148 258 188 323 209 363
208 397 -1 18 -7 41 -15 50 -12 15 -109 93 -354 285 l-99 77 0 211 1 211 91
72 c50 40 138 108 195 152 145 113 176 142 183 175 8 35 12 27 -140 290 -167
289 -223 386 -262 455 -41 72 -67 94 -110 95 -18 0 -148 -47 -296 -106 l-263
-106 -79 53 c-44 30 -125 77 -180 105 l-100 51 -12 94 c-7 52 -24 180 -40 284
-26 185 -28 191 -59 223 l-32 32 -452 0 -452 0 -32 -32z m628 -1333 c194 -40
348 -142 458 -304 170 -250 170 -572 0 -822 -193 -285 -552 -393 -879 -265
-127 49 -243 145 -325 265 -170 250 -170 571 -1 822 164 242 461 363 747 304z"/>
</g>
</svg>
