<?xml version="1.0" standalone="no"?>
<!DOCTYPE svg PUBLIC "-//W3C//DTD SVG 20010904//EN"
 "http://www.w3.org/TR/2001/REC-SVG-20010904/DTD/svg10.dtd">
<svg version="1.0" xmlns="http://www.w3.org/2000/svg"
 width="200.000000pt" height="200.000000pt" viewBox="0 0 200.000000 200.000000"
 preserveAspectRatio="xMidYMid meet">

<g transform="translate(0.000000,200.000000) scale(0.100000,-0.100000)"
fill="#000000" stroke="none">
<path d="M910 1736 c-205 -46 -357 -247 -337 -446 14 -125 103 -342 237 -575
64 -113 176 -275 188 -275 22 2 184 262 283 455 123 238 163 383 139 501 -37
177 -172 310 -349 344 -66 12 -91 12 -161 -4z m110 -175 l0 -58 40 -7 c67 -11
160 -112 160 -175 0 -17 8 -20 58 -23 43 -2 57 -7 57 -18 0 -11 -12 -16 -40
-17 -22 -1 -48 -2 -57 -2 -11 -1 -18 -9 -18 -21 0 -70 -110 -180 -180 -180
-18 0 -20 -6 -20 -60 0 -53 -2 -60 -20 -60 -18 0 -20 7 -20 60 0 54 -2 60 -20
60 -70 0 -180 110 -180 180 0 12 -7 20 -17 21 -10 0 -36 1 -58 2 -28 1 -40 6
-40 17 0 11 14 16 58 18 49 3 57 6 57 23 0 62 95 165 162 175 l38 7 0 58 c0
52 2 59 20 59 18 0 20 -7 20 -59z"/>
<path d="M765 653 c-11 -2 -56 -11 -100 -19 -218 -42 -333 -141 -264 -228 74
-94 295 -150 599 -150 304 0 525 56 599 150 81 103 -65 200 -374 249 -40 6
-41 5 -64 -35 -13 -23 -21 -43 -20 -44 2 -2 38 -8 79 -15 88 -14 180 -56 191
-88 26 -74 -157 -133 -411 -133 -254 0 -437 59 -411 133 11 32 103 74 191 88
41 7 76 13 78 15 7 5 -51 84 -62 83 -6 -1 -20 -3 -31 -6z"/>
<path d="M790 533 c-57 -10 -131 -35 -151 -52 -28 -22 -19 -38 35 -61 137 -60
561 -56 668 7 41 24 45 38 14 59 -33 21 -158 54 -208 54 -34 0 -41 -5 -76 -53
-61 -82 -67 -85 -102 -52 -16 16 -42 46 -56 67 -28 39 -47 44 -124 31z"/>
</g>
</svg>
