<svg width="17" height="17" viewBox="0 0 17 17" fill="none" xmlns="http://www.w3.org/2000/svg">
<path d="M8.5 0C9.62717 0 10.7082 0.447766 11.5052 1.2448C12.3022 2.04183 12.75 3.12283 12.75 4.25C12.75 5.37717 12.3022 6.45817 11.5052 7.2552C10.7082 8.05223 9.62717 8.5 8.5 8.5C7.37283 8.5 6.29183 8.05223 5.4948 7.2552C4.69777 6.45817 4.25 5.37717 4.25 4.25C4.25 3.12283 4.69777 2.04183 5.4948 1.2448C6.29183 0.447766 7.37283 0 8.5 0ZM8.5 10.625C13.1962 10.625 17 12.5269 17 14.875V17H0V14.875C0 12.5269 3.80375 10.625 8.5 10.625Z" fill="#15131B"/>
</svg>
