<?xml version="1.0" standalone="no"?>
<!DOCTYPE svg PUBLIC "-//W3C//DTD SVG 20010904//EN"
 "http://www.w3.org/TR/2001/REC-SVG-20010904/DTD/svg10.dtd">
<svg version="1.0" xmlns="http://www.w3.org/2000/svg"
 width="500.000000pt" height="500.000000pt" viewBox="0 0 500.000000 500.000000"
 preserveAspectRatio="xMidYMid meet">

<g transform="translate(0.000000,500.000000) scale(0.100000,-0.100000)"
fill="#000000" stroke="none">
<path d="M2280 4660 c-406 -45 -754 -255 -1007 -605 -169 -234 -253 -507 -253
-822 0 -160 22 -311 62 -418 12 -31 170 -373 273 -590 31 -66 88 -185 125
-265 37 -80 91 -194 120 -255 29 -60 65 -137 80 -170 15 -33 51 -109 80 -170
29 -60 69 -146 90 -190 21 -44 77 -163 125 -265 48 -102 107 -227 131 -278 53
-110 103 -168 181 -208 53 -26 67 -29 158 -29 89 0 106 3 155 27 75 37 134 98
171 177 43 90 91 191 274 581 87 184 180 382 207 440 28 58 61 128 73 155 13
28 46 100 75 160 64 134 156 332 327 695 126 267 137 317 137 605 0 203 -2
229 -26 330 -130 545 -559 963 -1103 1075 -111 23 -340 33 -455 20z m317 -719
c165 -34 325 -140 434 -288 116 -156 159 -388 109 -586 -58 -231 -246 -432
-475 -509 -61 -20 -89 -23 -220 -23 -131 0 -159 3 -220 23 -223 75 -400 258
-471 487 -29 94 -26 305 5 405 35 112 93 203 190 301 177 176 399 241 648 190z"/>
</g>
</svg>
